<?xml version="1.0" encoding="utf-8"?>
<!-- Generator: Adobe Illustrator 18.1.1, SVG Export Plug-In . SVG Version: 6.00 Build 0)  -->
<svg version="1.1" id="Layer_1" xmlns="http://www.w3.org/2000/svg" xmlns:xlink="http://www.w3.org/1999/xlink" x="0px" y="0px"
	 viewBox="0 0 112.3 105.3" enable-background="new 0 0 112.3 105.3" xml:space="preserve">
<g>
	<g>
		<polygon fill="#2CFF03" points="105.7,35.6 102.3,33.4 95.8,36.7 90.6,39.4 81.9,58.7 81.3,54.5 80,45.9 77.4,47.3 77.4,23.7 
			77.4,11.4 73.9,4.6 69.4,4.6 66.4,11 60.3,36.4 51.9,21.6 44.8,9.1 36.8,9.1 31.9,19 31.9,30.7 27.8,38.7 27.8,51.2 23.6,46.4 
			21.3,43.9 14.6,43.9 8.8,43.9 5.8,52.7 3.9,58.3 14.5,69.7 13,74.2 19.4,80.3 12.6,82.6 11.1,86.4 11.1,86.4 7.7,94.7 21.3,100.7 
			33.1,88.2 29.8,78.8 31.7,78.8 33.1,76.1 33.6,73.9 35.3,80.3 38.2,80.3 41.8,87.5 52.7,88.6 53.9,82.6 46.5,73.9 49,72.3 
			58.5,65.7 58.5,72.9 62.4,74.4 63.3,77.6 66.4,85.6 73.6,81.1 71.7,70.5 77.7,72 80.4,68.9 87.2,76.1 98.6,63.6 108.4,41.7 		"/>
	</g>
	<polygon fill="#25E400" points="77.4,23.7 66.4,11 69.4,4.6 	"/>
	<polygon fill="#80FE67" points="77.4,11.4 74,4.6 69.4,4.6 77.4,23.7 	"/>
	<polygon fill="#22B300" points="66.4,11 60.3,36.4 60.3,48.7 65.6,56.6 71.2,56.6 70.9,51 77.4,47.4 77.4,23.7 	"/>
	<polygon fill="#2CFF03" points="80,45.9 81.3,54.5 70.9,51 	"/>
	<polygon fill="#22B300" points="81.9,58.7 80.4,68.9 77.8,72 77.4,53.2 81.3,54.5 	"/>
	<polygon fill="#168000" points="71.7,70.5 70.9,51 77.4,53.2 77.8,72 	"/>
	<polygon fill="#0E4C03" points="87.2,76.1 98,50.2 108.4,41.7 98.6,63.6 	"/>
	<polygon fill="#179800" points="80.4,68.9 81.9,58.7 90.6,39.4 98,50.2 87.2,76.1 	"/>
	<polygon fill="#2CFF03" points="108.4,41.7 105.8,35.6 99.7,41.7 98,50.2 	"/>
	<polygon fill="#25E400" points="90.6,39.4 95.8,36.7 99.7,41.7 98,50.2 	"/>
	<polygon fill="#80FE67" points="102.4,33.4 105.8,35.6 99.7,41.7 95.8,36.7 	"/>
	<polygon fill="#0E4C03" points="63.4,77.6 61.5,71 69.4,63.8 71.7,70.5 73.6,81.1 66.4,85.6 	"/>
	<polygon fill="#179800" points="60.3,61.5 61.5,71 69.4,63.8 	"/>
	<polygon fill="#146602" points="53.9,82.6 46.5,73.9 46.5,80.1 52.8,88.6 	"/>
	<polygon fill="#053400" points="41.8,87.5 38.2,80.3 46.5,80.1 52.8,88.6 	"/>
	<polygon fill="#0E4C03" points="37.1,76.1 38.2,80.3 42.9,82 46.5,80.1 41.8,75.6 	"/>
	<polygon fill="#25E400" points="46.5,73.9 42.9,71 41.8,75.6 46.5,80.1 	"/>
	<polygon fill="#22B300" points="33.7,69.9 39.9,68.4 42.9,71 41.8,75.6 37.1,76.1 	"/>
	<polygon fill="#0E4C03" points="7.7,94.7 21.5,90.1 21.4,100.7 	"/>
	<polygon fill="#179800" points="12.6,82.6 21.5,90.1 7.7,94.7 	"/>
	<polygon fill="#179800" points="21.4,100.7 33.1,88.2 29.9,78.8 21.5,90.1 	"/>
	<polygon fill="#22B300" points="19.5,80.3 27.2,77.9 29.9,78.8 21.5,90.1 12.6,82.6 	"/>
	<polygon fill="#22B300" points="14.5,69.7 21.4,69.7 20,76.1 13,74.2 	"/>
	<polygon fill="#053400" points="19.5,80.3 23.2,79.1 20,76.1 13,74.2 	"/>
	<polygon fill="#168000" points="21.4,69.7 27.2,77.9 23.2,79.1 20,76.1 	"/>
	<polygon fill="#2CFF03" points="8.9,43.9 14.6,43.9 14.6,47.2 9.8,53.2 5.9,52.7 	"/>
	<polygon fill="#179800" points="3.9,58.3 14.6,58.9 9.8,53.2 5.9,52.7 	"/>
	<polygon fill="#2CFF03" points="20,54.5 9.8,53.2 14.6,58.9 	"/>
	<polygon fill="#80FE67" points="23.6,46.4 20,54.5 9.8,53.2 14.6,47.2 	"/>
	<polygon fill="#C2FEB4" points="21.4,43.9 14.6,43.9 14.6,47.2 23.6,46.4 	"/>
	<polygon fill="#22B300" points="14.6,58.9 31.8,78.8 33.1,76.1 20,54.5 	"/>
	<polygon fill="#179800" points="23.6,46.4 27.8,51.2 33.7,73.9 33.1,76.1 20,54.5 	"/>
	<polygon fill="#0E4C03" points="3.9,58.3 14.5,69.7 21.4,69.7 27.2,77.9 29.9,78.8 31.8,78.8 14.6,58.9 	"/>
	<polygon fill="#22B300" points="32,30.7 37.1,32.2 27.8,38.7 	"/>
	<polygon fill="#146602" points="40.3,48.5 37.1,32.2 27.8,38.7 	"/>
	<polygon fill="#0E4C03" points="27.8,51.2 40.3,48.5 27.8,38.7 	"/>
	<polygon fill="#179800" points="37.1,32.2 37.1,27.1 32,19 32,30.7 	"/>
	<polygon fill="#25E400" points="36.9,9.1 37.1,27.1 32,19 	"/>
	<polygon fill="#80FE67" points="44.8,9.1 42.9,27.1 37.1,27.1 36.9,9.1 	"/>
	<polygon fill="#C2FEB4" points="51.9,21.6 42.9,27.1 44.8,9.1 	"/>
	<polygon fill="#2CFF03" points="37.1,27.1 37.1,32.2 40.3,48.5 39.5,27.1 	"/>
	<polygon fill="#179800" points="27.8,51.2 40.3,63.8 40.3,48.5 	"/>
	<polygon fill="#053400" points="33.7,73.9 35.4,80.3 38.2,80.3 37.1,76.1 33.7,69.9 39.9,68.4 42.9,71 40.3,63.8 27.8,51.2 	"/>
	<polygon fill="#22B300" points="49,53.2 40.3,63.8 39.5,27.1 42.9,27.1 	"/>
	<polygon fill="#80FE67" points="48.5,23.7 49,53.2 42.9,27.1 	"/>
	<polygon fill="#2CFF03" points="51.9,21.6 60.3,36.4 60.3,42.9 49,53.2 48.5,23.7 	"/>
	<polygon fill="#0E4C03" points="40.3,63.8 42.9,71 46.5,73.9 49,72.3 49,53.2 	"/>
	<polygon fill="#168000" points="60.3,42.9 60.3,48.7 58.5,65.7 49,53.2 	"/>
	<polygon fill="#179800" points="49,72.3 58.5,65.7 49,53.2 	"/>
	<polygon fill="#0E4C03" points="60.3,48.7 58.5,65.7 58.5,72.9 62.4,74.4 61.5,71 60.3,61.5 69.4,63.8 71.7,70.5 71.2,56.6 
		65.6,56.6 	"/>
	<polygon fill="#2CFF03" points="77.4,23.7 60.3,36.4 66.4,11 	"/>
	<polygon fill="#168000" points="60.3,61.5 64.2,68.6 61.5,71 	"/>
	<polygon fill="#25E400" points="80,45.9 77.4,53.2 81.3,54.5 	"/>
	<polygon fill="#053400" points="64.2,68.6 66.4,85.6 63.4,77.6 61.5,71 	"/>
	<polygon fill="#168000" points="33.7,69.9 39.5,72.3 41.8,75.6 37.1,76.1 	"/>
	<polygon fill="#2CFF03" points="39.5,72.3 42.9,71 41.8,75.6 	"/>
	<polygon fill="#0E4C03" points="12.6,82.6 21.5,90.1 11.1,86.4 	"/>
	<polygon fill="#179800" points="77.4,23.7 65.6,56.6 71.2,56.6 70.9,51 77.4,47.4 	"/>
	<polygon fill="#25E400" points="14.5,69.7 20,76.1 21.4,69.7 	"/>
	<g>
		<g>
			<path fill="#FFFFFF" d="M73.9,4.6l3.4,6.8v12.3v23.6l2.6-1.5l1.3,8.7l0.6,4.2l8.7-19.3l5.2-2.7l6.6-3.4l3.4,2.3l2.6,6.1l-9.8,22
				L87.2,76.1l-6.8-7.2l-2.6,3l-6.1-1.5l1.9,10.6l-7.2,4.5l-3-7.9l-0.9-3.2l-3.9-1.5v-7.2L49,72.3l-2.5,1.6l7.4,8.7l-1.1,6.1
				l-11-1.1l-3.6-7.2h-2.8l-1.7-6.4l-0.6,2.3l-1.3,2.6h-1.9l3.2,9.5l-11.7,12.5L7.7,94.7l3.4-8.3l1.5-3.8l6.8-2.3L13,74.2l1.5-4.5
				L3.9,58.3l1.9-5.7l3-8.8h5.8h6.7l2.3,2.6l4.2,4.7V38.7l4.2-7.9V19l4.9-9.8h7.9l7.1,12.5l8.4,14.7L66.4,11l3-6.4H73.9 M75.3,2.5
				h-1.3h-4.5h-1.3l-0.6,1.2l-3,6.4l-0.1,0.2l-0.1,0.2l-4.8,20.1l-5.7-10.1L46.6,8.1L46,7h-1.2h-7.9h-1.3L35,8.2L30,18l-0.2,0.4V19
				v11.2l-3.9,7.5l-0.2,0.5v0.5v6.9L25.2,45l-2.3-2.6l-0.6-0.7h-1h-6.7H8.8H7.3l-0.5,1.4l-3,8.8l-1.9,5.7l-0.4,1.2l0.9,0.9l9.7,10.4
				L11,73.6l-0.4,1.3l1,0.9l3.9,3.6L12,80.6L11,80.9l-0.4,0.9l-1.5,3.8l-3.4,8.3L5,95.8l1.9,0.8l13.6,6.1l1.4,0.6l1-1.1l11.7-12.5
				l0.9-0.9l-0.4-1.2l-2.3-6.7H33l0.2-0.3l0.1,0.3l0.4,1.6h1.6h1.5l3,6l0.5,1l1.2,0.1l11,1.1l1.9,0.2l0.4-1.9L56,83l0.2-1l-0.7-0.8
				l-5.8-6.9l0.5-0.3l6.3-4.3v3.2v1.5l1.4,0.5l2.9,1.1l0.6,2.2l0,0.1l0,0.1l3,7.9l0.9,2.4l2.2-1.4l7.2-4.5l1.2-0.8l-0.3-1.4
				l-1.3-7.4l2.9,0.7l1.3,0.3l0.9-1l1.1-1.3l5.2,5.5l1.6,1.7l1.5-1.7l11.4-12.5l0.2-0.3l0.1-0.3l9.8-22l0.4-0.9l-0.4-0.9l-2.6-6.1
				l-0.2-0.6l-0.5-0.3l-3.4-2.3l-1-0.7l-1.1,0.6l-6.6,3.4l-5.2,2.7L89,37.9l-0.3,0.7l-5.7,12.7l-0.8-5.7l-0.4-3l-2.2,1.2v-20V11.4
				v-0.5l-0.2-0.4l-3.4-6.8L75.3,2.5L75.3,2.5z"/>
		</g>
	</g>
</g>
</svg>
